<svg xmlns="http://www.w3.org/2000/svg" width="1024" height="1024" viewBox="0 0 1024 1024"><style>.background-shadow{filter:url(#background-dropshadow)}.node{opacity:1}.node-border{fill:#eee;opacity:1}.node{fill:#307295}.node-shadow{filter:url(#node-dropshadow);opacity:.3}.line-border{stroke:#000;opacity:.2}.line{stroke:#eee;opacity:1}.line-shadow{stroke:#000;filter:url(#node-dropshadow);opacity:.2}</style><filter id="background-dropshadow"><feGaussianBlur in="SourceAlpha" stdDeviation="20"/></filter><linearGradient id="background-fill" gradientTransform="rotate(90)"><stop offset="0" stop-color="#fff"/><stop offset="1" stop-color="#d2d2d2"/></linearGradient><linearGradient id="circle-stroke" x1="0" x2="0" y1="62" y2="962" gradientUnits="userSpaceOnUse"><stop offset="0" stop-color="#aaa"/><stop offset="1" stop-color="#fff"/></linearGradient><linearGradient id="circle-fill" x1="0" x2="0" y1="100" y2="924" gradientUnits="userSpaceOnUse"><stop offset="0" stop-color="#4baac5" stop-opacity="1"/><stop offset="1" stop-color="#307295" stop-opacity="1"/></linearGradient><filter id="node-dropshadow" width="160%" height="160%" x="-30%" y="-30%"><feGaussianBlur in="SourceGraphic" stdDeviation="15"/></filter><rect width="790" height="790" x="117" y="124" class="background-shadow" rx="160"/><rect width="824" height="824" x="100" y="100" fill="url(#background-fill)" rx="160"/><circle cx="512" cy="512" r="356" fill="url(#circle-fill)" stroke="url(#circle-stroke)" stroke-width="4"/><g transform="translate(512,512) scale(1.1)"><g opacity="1" transform="translate(6,12)"><line x1="-168" x2="20" y1="-92" y2="-180" stroke-width="24" class="line-shadow"/><line x1="-168" x2="20" y1="92" y2="-180" stroke-width="24" class="line-shadow"/><line x1="-168" x2="20" y1="-92" y2="-60" stroke-width="24" class="line-shadow"/><line x1="-168" x2="20" y1="92" y2="-60" stroke-width="24" class="line-shadow"/><line x1="-168" x2="20" y1="-92" y2="60" stroke-width="24" class="line-shadow"/><line x1="-168" x2="20" y1="92" y2="60" stroke-width="24" class="line-shadow"/><line x1="-168" x2="20" y1="-92" y2="180" stroke-width="24" class="line-shadow"/><line x1="-168" x2="20" y1="92" y2="180" stroke-width="24" class="line-shadow"/><line x1="20" x2="208" y1="-180" y2="0" stroke-width="24" class="line-shadow"/><line x1="20" x2="208" y1="-60" y2="0" stroke-width="24" class="line-shadow"/><line x1="20" x2="208" y1="60" y2="0" stroke-width="24" class="line-shadow"/><line x1="20" x2="208" y1="180" y2="0" stroke-width="24" class="line-shadow"/><g transform="translate(-168,-92)"><circle cx="0" cy="0" r="40" class="node-shadow"/></g><g transform="translate(-168,92)"><circle cx="0" cy="0" r="40" class="node-shadow"/></g><g transform="translate(20,-180)"><circle cx="0" cy="0" r="40" class="node-shadow"/></g><g transform="translate(20,-60)"><circle cx="0" cy="0" r="40" class="node-shadow"/></g><g transform="translate(20,60)"><circle cx="0" cy="0" r="40" class="node-shadow"/></g><g transform="translate(20,180)"><circle cx="0" cy="0" r="40" class="node-shadow"/></g><g transform="translate(208,0)"><circle cx="0" cy="0" r="40" class="node-shadow"/></g></g><line x1="-168" x2="20" y1="-92" y2="-180" stroke-width="24" class="line-border"/><line x1="-168" x2="20" y1="92" y2="-180" stroke-width="24" class="line-border"/><line x1="-168" x2="20" y1="-92" y2="-60" stroke-width="24" class="line-border"/><line x1="-168" x2="20" y1="92" y2="-60" stroke-width="24" class="line-border"/><line x1="-168" x2="20" y1="-92" y2="60" stroke-width="24" class="line-border"/><line x1="-168" x2="20" y1="92" y2="60" stroke-width="24" class="line-border"/><line x1="-168" x2="20" y1="-92" y2="180" stroke-width="24" class="line-border"/><line x1="-168" x2="20" y1="92" y2="180" stroke-width="24" class="line-border"/><line x1="20" x2="208" y1="-180" y2="0" stroke-width="24" class="line-border"/><line x1="20" x2="208" y1="-60" y2="0" stroke-width="24" class="line-border"/><line x1="20" x2="208" y1="60" y2="0" stroke-width="24" class="line-border"/><line x1="20" x2="208" y1="180" y2="0" stroke-width="24" class="line-border"/><line x1="-168" x2="20" y1="-92" y2="-180" stroke-width="10" class="line"/><line x1="-168" x2="20" y1="92" y2="-180" stroke-width="10" class="line"/><line x1="-168" x2="20" y1="-92" y2="-60" stroke-width="10" class="line"/><line x1="-168" x2="20" y1="92" y2="-60" stroke-width="10" class="line"/><line x1="-168" x2="20" y1="-92" y2="60" stroke-width="10" class="line"/><line x1="-168" x2="20" y1="92" y2="60" stroke-width="10" class="line"/><line x1="-168" x2="20" y1="-92" y2="180" stroke-width="10" class="line"/><line x1="-168" x2="20" y1="92" y2="180" stroke-width="10" class="line"/><line x1="20" x2="208" y1="-180" y2="0" stroke-width="10" class="line"/><line x1="20" x2="208" y1="-60" y2="0" stroke-width="10" class="line"/><line x1="20" x2="208" y1="60" y2="0" stroke-width="10" class="line"/><line x1="20" x2="208" y1="180" y2="0" stroke-width="10" class="line"/><g transform="translate(-168,-92)"><circle cx="0" cy="0" r="50" class="node-border"/><circle cx="0" cy="0" r="38" class="node"/></g><g transform="translate(-168,92)"><circle cx="0" cy="0" r="50" class="node-border"/><circle cx="0" cy="0" r="38" class="node"/></g><g transform="translate(20,-180)"><circle cx="0" cy="0" r="50" class="node-border"/><circle cx="0" cy="0" r="38" class="node"/></g><g transform="translate(20,-60)"><circle cx="0" cy="0" r="50" class="node-border"/><circle cx="0" cy="0" r="38" class="node"/></g><g transform="translate(20,60)"><circle cx="0" cy="0" r="50" class="node-border"/><circle cx="0" cy="0" r="38" class="node"/></g><g transform="translate(20,180)"><circle cx="0" cy="0" r="50" class="node-border"/><circle cx="0" cy="0" r="38" class="node"/></g><g transform="translate(208,0)"><circle cx="0" cy="0" r="50" class="node-border"/><circle cx="0" cy="0" r="38" class="node"/></g></g></svg>