<svg xmlns="http://www.w3.org/2000/svg" width="1024" height="1024" viewBox="0 0 1024 1024"><style>.background-shadow{filter:url(#background-dropshadow)}.node{opacity:1}.node-border{fill:#eee;opacity:1}.node{fill:#307295}.node-shadow{filter:url(#node-dropshadow);opacity:.3}.line-border{stroke:#000;opacity:.2}.line{stroke:#eee;opacity:1}.line-shadow{stroke:#000;filter:url(#node-dropshadow);opacity:.2}</style><filter id="background-dropshadow"><feGaussianBlur in="SourceAlpha" stdDeviation="20"/></filter><linearGradient id="background-fill" x1="0" x2="0" y1="62" y2="962" gradientUnits="userSpaceOnUse"><stop offset="0" stop-color="#fefefe"/><stop offset="1" stop-color="#cacaca"/></linearGradient><linearGradient id="circle-stroke" x1="0" x2="0" y1="62" y2="962" gradientUnits="userSpaceOnUse"><stop offset="0" stop-color="#aaa"/><stop offset="1" stop-color="#fff"/></linearGradient><linearGradient id="circle-fill" x1="-512" x2="-512" y1="-412" y2="412" gradientUnits="userSpaceOnUse"><stop offset="0" stop-color="#4baac5" stop-opacity="1"/><stop offset="1" stop-color="#307295" stop-opacity="1"/></linearGradient><filter id="node-dropshadow" width="160%" height="160%" x="-30%" y="-30%"><feGaussianBlur in="SourceGraphic" stdDeviation="15"/></filter><g transform="translate(512,512) scale(1.06)"><circle cx="0" cy="0" r="438" class="background-shadow"/><circle cx="0" cy="0" r="456" fill="url(#background-fill)"/><circle cx="0" cy="0" r="417" fill="url(#circle-fill)" stroke="url(#circle-stroke)" stroke-width="4"/><g transform="scale(1.2)"><g opacity="1" transform="translate(6,12)"><line x1="-168" x2="20" y1="-92" y2="-180" stroke-width="24" class="line-shadow"/><line x1="-168" x2="20" y1="92" y2="-180" stroke-width="24" class="line-shadow"/><line x1="-168" x2="20" y1="-92" y2="-60" stroke-width="24" class="line-shadow"/><line x1="-168" x2="20" y1="92" y2="-60" stroke-width="24" class="line-shadow"/><line x1="-168" x2="20" y1="-92" y2="60" stroke-width="24" class="line-shadow"/><line x1="-168" x2="20" y1="92" y2="60" stroke-width="24" class="line-shadow"/><line x1="-168" x2="20" y1="-92" y2="180" stroke-width="24" class="line-shadow"/><line x1="-168" x2="20" y1="92" y2="180" stroke-width="24" class="line-shadow"/><line x1="20" x2="208" y1="-180" y2="0" stroke-width="24" class="line-shadow"/><line x1="20" x2="208" y1="-60" y2="0" stroke-width="24" class="line-shadow"/><line x1="20" x2="208" y1="60" y2="0" stroke-width="24" class="line-shadow"/><line x1="20" x2="208" y1="180" y2="0" stroke-width="24" class="line-shadow"/><g transform="translate(-168,-92)"><circle cx="0" cy="0" r="40" class="node-shadow"/></g><g transform="translate(-168,92)"><circle cx="0" cy="0" r="40" class="node-shadow"/></g><g transform="translate(20,-180)"><circle cx="0" cy="0" r="40" class="node-shadow"/></g><g transform="translate(20,-60)"><circle cx="0" cy="0" r="40" class="node-shadow"/></g><g transform="translate(20,60)"><circle cx="0" cy="0" r="40" class="node-shadow"/></g><g transform="translate(20,180)"><circle cx="0" cy="0" r="40" class="node-shadow"/></g><g transform="translate(208,0)"><circle cx="0" cy="0" r="40" class="node-shadow"/></g></g><line x1="-168" x2="20" y1="-92" y2="-180" stroke-width="24" class="line-border"/><line x1="-168" x2="20" y1="92" y2="-180" stroke-width="24" class="line-border"/><line x1="-168" x2="20" y1="-92" y2="-60" stroke-width="24" class="line-border"/><line x1="-168" x2="20" y1="92" y2="-60" stroke-width="24" class="line-border"/><line x1="-168" x2="20" y1="-92" y2="60" stroke-width="24" class="line-border"/><line x1="-168" x2="20" y1="92" y2="60" stroke-width="24" class="line-border"/><line x1="-168" x2="20" y1="-92" y2="180" stroke-width="24" class="line-border"/><line x1="-168" x2="20" y1="92" y2="180" stroke-width="24" class="line-border"/><line x1="20" x2="208" y1="-180" y2="0" stroke-width="24" class="line-border"/><line x1="20" x2="208" y1="-60" y2="0" stroke-width="24" class="line-border"/><line x1="20" x2="208" y1="60" y2="0" stroke-width="24" class="line-border"/><line x1="20" x2="208" y1="180" y2="0" stroke-width="24" class="line-border"/><line x1="-168" x2="20" y1="-92" y2="-180" stroke-width="10" class="line"/><line x1="-168" x2="20" y1="92" y2="-180" stroke-width="10" class="line"/><line x1="-168" x2="20" y1="-92" y2="-60" stroke-width="10" class="line"/><line x1="-168" x2="20" y1="92" y2="-60" stroke-width="10" class="line"/><line x1="-168" x2="20" y1="-92" y2="60" stroke-width="10" class="line"/><line x1="-168" x2="20" y1="92" y2="60" stroke-width="10" class="line"/><line x1="-168" x2="20" y1="-92" y2="180" stroke-width="10" class="line"/><line x1="-168" x2="20" y1="92" y2="180" stroke-width="10" class="line"/><line x1="20" x2="208" y1="-180" y2="0" stroke-width="10" class="line"/><line x1="20" x2="208" y1="-60" y2="0" stroke-width="10" class="line"/><line x1="20" x2="208" y1="60" y2="0" stroke-width="10" class="line"/><line x1="20" x2="208" y1="180" y2="0" stroke-width="10" class="line"/><g transform="translate(-168,-92)"><circle cx="0" cy="0" r="50" class="node-border"/><circle cx="0" cy="0" r="38" class="node"/></g><g transform="translate(-168,92)"><circle cx="0" cy="0" r="50" class="node-border"/><circle cx="0" cy="0" r="38" class="node"/></g><g transform="translate(20,-180)"><circle cx="0" cy="0" r="50" class="node-border"/><circle cx="0" cy="0" r="38" class="node"/></g><g transform="translate(20,-60)"><circle cx="0" cy="0" r="50" class="node-border"/><circle cx="0" cy="0" r="38" class="node"/></g><g transform="translate(20,60)"><circle cx="0" cy="0" r="50" class="node-border"/><circle cx="0" cy="0" r="38" class="node"/></g><g transform="translate(20,180)"><circle cx="0" cy="0" r="50" class="node-border"/><circle cx="0" cy="0" r="38" class="node"/></g><g transform="translate(208,0)"><circle cx="0" cy="0" r="50" class="node-border"/><circle cx="0" cy="0" r="38" class="node"/></g></g></g></svg>